<svg version="1.1" id="" data-name="" xmlns="http://www.w3.org/2000/svg" viewBox="0 0 96.46 11.25">
<defs><style>.cls-1 {fill: #fff;}.cls-2 {fill: red;}</style></defs>
<g>
<path d="M37.06,5.25h-2.78c-.85,0-1.89.17-2.57,1.17-.42.62-1.61,2.96-1.61,2.96h1.97l.6-1.16h2.57l.03,1.16h1.88l-.09-4.12M33.04,7.49s.33-.68.54-.95c.35-.47.79-.56,1.21-.57.26,0,.4,0,.4,0l.04,1.52h-2.18Z"/>
<path d="M44.55,9.38l.14-.72h-3.71s3.59-2.43,4.05-2.7c.04-.19.11-.56.14-.7h-6.64l-.1.7h3.69l-4.11,2.7-.13.72h6.68Z"/>
<path d="M50.76,5.25c-.91-.05-2.07-.04-2.8,0-1.23.08-2.04.35-2.36,1.41-.13.41-.27,1.06-.35,1.5-.16.97.38,1.18,1.03,1.22.99.06,2.45.07,3.47.03.95-.04,1.72-.32,2.02-1.23.16-.49.26-.91.36-1.51.12-.7-.22-1.35-1.38-1.41M48.95,8.65c-.37.03-.87.02-1.16,0-.25-.02-.68-.09-.62-.57.04-.33.22-1.16.35-1.52.14-.4.45-.56.92-.58.34-.02.75-.02,1.04,0,.62.04.85.26.75.74-.11.54-.2.9-.34,1.3-.16.44-.54.6-.93.63"/>
<path d="M57.92,5.25c-.91-.05-2.07-.04-2.8,0-1.23.08-2.04.35-2.36,1.41-.12.41-.27,1.06-.34,1.5-.16.97.38,1.18,1.03,1.22.99.06,2.45.07,3.46.03.96-.04,1.72-.32,2.02-1.23.16-.49.26-.91.36-1.51.12-.7-.22-1.35-1.38-1.41M56.11,8.65c-.36.03-.87.02-1.16,0-.24-.02-.67-.09-.62-.57.03-.33.22-1.16.35-1.52.14-.4.45-.56.92-.58.34-.02.75-.02,1.04,0,.61.04.85.26.75.74-.11.54-.19.9-.34,1.3-.16.44-.54.6-.93.63"/>
<path d="M71.12,9.36c-.74,0-.93-.19-.88-.71.02-.16.04-.39.14-.67.19-.54.91-.83,1.83-.83h1.9s.19-.51-.47-.51h-2.59l.14-.68h3.22c1.19,0,1.58.65,1.42,1.44-.12.56-.43,1.96-.43,1.96h-4.29ZM72.07,8.67h1.74l.19-.89h-1.29c-.55,0-.82.11-.9.39-.04.11-.05.16-.06.25-.01.14.02.25.33.25"/>
<path d="M77.78,9.36c-1.51,0-1.66-.75-1.52-1.4.05-.21.07-.3.18-.67.28-.97.9-1.32,2.37-1.32h3.21l-.14.65h-2.43c-.83,0-1.14.4-1.24.7-.08.26-.13.44-.15.59-.06.47.12.77.77.77h2.63l-.15.68h-3.52Z"/>
<polygon points="82.92 4.42 84.71 4.42 84.52 5.3 82.73 5.3 82.92 4.42"/>
<polygon points="83.66 9.36 84.37 5.96 82.62 5.96 81.9 9.36 83.66 9.36"/>
<path d="M90.16,7.38c-.14.65-.43,1.97-.43,1.97h-1.74s.25-1.09.36-1.64c.17-.8.04-1-.96-1h-.66l-.56,2.64h-1.76l.72-3.38h3.12c1.4,0,2.15.28,1.92,1.41"/>
<path d="M90.21,11.25l.51-.89h1.45c1.61,0,1.81-.93,1.81-.93h-2.45c-.6,0-1.1-.19-.96-1.02.06-.36.11-.65.26-1.13.25-.78,1.11-1.31,2.71-1.31,1.7,0,2.91.01,2.91.01,0,0-.33,1.88-.67,3.17-.44,1.65-1.51,2.1-3.55,2.1h-2.02ZM94.12,8.69l.42-1.98s-.33,0-.59.01c-.68.01-1.32.19-1.52.9-.07.25-.1.41-.12.6-.04.3.2.47.66.47h1.15Z"/>
<path class="cls-2" d="M70.62,5.52c-.08.4-.16.63-.3.9-.24.49-.74.77-1.44.86-.27.04-.64.02-.64.02l1.47,2.08h-2.17l-2.03-2.9s1.77,0,1.95,0c.43,0,.99-.12,1.14-.42.04-.09.11-.24.12-.4,0-.2-.19-.36-.52-.36s-3.19,0-3.19,0l-1.01,4.02h-2.06l1.29-5.01h5.9c1.1,0,1.62.55,1.49,1.21"/>
<path d="M30.27,6.43h-3.39l-.32.95h1.68l-.27.92h-2.72c-.59,0-.84-.14-.78-.56.07-.47.25-.87.41-1.31.33-.88.8-1.11,2.76-1.11,1.04,0,2.94,0,2.94,0l.31-.99s-2.8,0-3.53,0c-2.88,0-3.86.34-4.41,1.74-.19.48-.46,1.36-.59,2.08-.15.86.51,1.19,1.22,1.21.98.04,5.86.02,5.86.02l.83-2.96Z"/>
</g>
<g>
<path class="cls-1" d="M20.89.29l-2.47,9.81H.37L2.83.29h18.06M21.26,0H2.61l-.05.22L.09,10.03l-.09.35h18.65l.05-.22L21.17.35l.09-.35h0Z"/>
<polygon class="cls-2" points="11.85 .29 11.66 .29 9.2 10.1 18.43 10.1 20.89 .29 11.85 .29"/>
<polygon points="2.83 .29 .37 10.1 9.34 10.1 11.81 .29 2.83 .29"/>
<path class="cls-1" d="M18.92,5.61c-.08.4-.16.63-.29.9-.25.5-.75.76-1.45.86-.28.03-.64.02-.64.02l1.47,2.09h-2.18l-2.04-2.91s1.78,0,1.96,0c.43,0,.99-.12,1.15-.42.05-.09.12-.24.12-.4,0-.2-.19-.36-.51-.36s-3.2,0-3.2,0l-1.01,4.04h-2.06l1.3-5.03s4.89,0,5.91,0c1.11,0,1.63.56,1.5,1.22"/>
<path class="cls-1" d="M9.49,6.47h-3.4s-.32.96-.32.96h1.69l-.27.92h-2.72c-.59,0-.84-.15-.78-.56.07-.47.24-.87.4-1.31.33-.89.8-1.11,2.77-1.11,1.05,0,2.95,0,2.95,0l.31-1s-2.81,0-3.54,0c-2.89,0-3.87.34-4.42,1.75-.19.48-.47,1.36-.59,2.09-.15.86.52,1.19,1.22,1.22.98.03,5.88.01,5.88.01l.83-2.96Z"/>
</g>
</svg>